<?xml version="1.0" encoding="UTF-8" standalone="no"?>
<!-- Created with Inkscape (http://www.inkscape.org/) -->
<svg
   xmlns:dc="http://purl.org/dc/elements/1.1/"
   xmlns:cc="http://web.resource.org/cc/"
   xmlns:rdf="http://www.w3.org/1999/02/22-rdf-syntax-ns#"
   xmlns:svg="http://www.w3.org/2000/svg"
   xmlns="http://www.w3.org/2000/svg"
   xmlns:xlink="http://www.w3.org/1999/xlink"
   xmlns:sodipodi="http://sodipodi.sourceforge.net/DTD/sodipodi-0.dtd"
   xmlns:inkscape="http://www.inkscape.org/namespaces/inkscape"
   width="115.55674"
   height="94.195465"
   id="svg2562"
   sodipodi:version="0.32"
   inkscape:version="0.45+devel"
   version="1.0"
   sodipodi:docname="sea_lion2.svg"
   inkscape:output_extension="org.inkscape.output.svg.inkscape"
   inkscape:export-filename="/home/valessio/Desktop/sea_lion2.png"
   inkscape:export-xdpi="155.73997"
   inkscape:export-ydpi="155.73997">
  <defs
     id="defs2564">
    <linearGradient
       inkscape:collect="always"
       id="linearGradient11619">
      <stop
         style="stop-color:#d3d7cf;stop-opacity:1;"
         offset="0"
         id="stop11621" />
      <stop
         style="stop-color:#d3d7cf;stop-opacity:0;"
         offset="1"
         id="stop11623" />
    </linearGradient>
    <linearGradient
       inkscape:collect="always"
       xlink:href="#linearGradient11619"
       id="linearGradient18779"
       gradientUnits="userSpaceOnUse"
       gradientTransform="matrix(0.2856579,0,0,0.2856579,55.072743,298.22347)"
       x1="538.76031"
       y1="246.763"
       x2="448.11984"
       y2="445.83325" />
    <filter
       inkscape:collect="always"
       id="filter12604">
      <feGaussianBlur
         inkscape:collect="always"
         stdDeviation="1.2121533"
         id="feGaussianBlur12606" />
    </filter>
  </defs>
  <sodipodi:namedview
     id="base"
     pagecolor="#ffffff"
     bordercolor="#666666"
     borderopacity="1.0"
     inkscape:pageopacity="0.0"
     inkscape:pageshadow="2"
     inkscape:zoom="5.2019491"
     inkscape:cx="57.778374"
     inkscape:cy="47.481595"
     inkscape:document-units="px"
     inkscape:current-layer="layer1"
     inkscape:window-width="1024"
     inkscape:window-height="689"
     inkscape:window-x="0"
     inkscape:window-y="26" />
  <metadata
     id="metadata2567">
    <rdf:RDF>
      <cc:Work
         rdf:about="">
        <dc:format>image/svg+xml</dc:format>
        <dc:type
           rdf:resource="http://purl.org/dc/dcmitype/StillImage" />
      </cc:Work>
    </rdf:RDF>
  </metadata>
  <g
     inkscape:label="Camada 1"
     inkscape:groupmode="layer"
     id="layer1"
     transform="translate(-245.07877,-236.69302)">
    <g
       id="g18767"
       transform="matrix(0.8385492,0,0,0.8385492,174.39839,-51.92255)">
      <path
         id="path18657"
         d="M 178.6875,346.0625 C 177.39083,346.09133 176.24859,346.19461 175.4375,346.34375 C 175.24477,346.32659 175.06247,346.32227 174.875,346.3125 C 174.41637,346.2886 173.96489,346.27587 173.53125,346.28125 C 173.30985,346.27394 173.38533,346.2966 173.09375,346.28125 C 172.81535,346.2666 172.51077,346.32016 172.21875,346.40625 C 172.0987,346.44164 171.99159,346.48594 171.875,346.53125 C 171.78163,346.5656 171.68677,346.58527 171.59375,346.625 C 171.48791,346.67279 171.37857,346.73116 171.28125,346.78125 C 171.17741,346.83219 171.07295,346.88016 170.96875,346.9375 C 170.84753,347.00794 170.71229,347.09998 170.625,347.15625 C 169.64761,347.7539 168.67834,348.5718 167.78125,349.5 C 165.80431,351.54548 164.16379,354.01913 163.4375,355.5 C 158.67124,360.86248 159.13778,366.03045 158.59375,371.09375 C 158.59315,371.10566 158.59315,371.11311 158.59375,371.125 C 158.46536,376.57363 157.43119,381.26607 153.4375,386.5 C 153.43073,386.50885 153.41302,386.5224 153.40625,386.53125 C 149.6744,390.69461 148.04839,395.40352 146.21875,400 C 142.05542,405.96996 137.02583,410.01083 132.34375,414.96875 C 127.69704,419.74205 124.25742,425.05772 120.28125,430.09375 C 120.27158,430.10509 120.25817,430.1438 120.25,430.15625 C 117.02486,435.37973 112.89886,439.27583 107.28125,441.1875 C 100.5162,443.2437 94.49933,444.7309 87.1875,448.3125 C 87.168927,448.31992 87.14208,448.33334 87.125,448.34375 C 86.739613,448.62747 86.5262,449.03075 86.59375,449.40625 C 86.661303,449.78175 86.93207,450.06475 87.25,450.25 C 87.815122,450.5793 88.59222,450.6894 89.28125,450.4375 C 89.592261,450.82356 89.97541,451.09047 90.40625,451.1875 C 90.860742,451.28984 91.34664,451.28339 91.8125,451.25 C 91.923899,451.40999 92.08265,451.55934 92.34375,451.6875 C 92.704539,451.86459 93.22834,451.93122 93.90625,451.8125 C 94.273057,452.25197 94.91786,452.50988 95.71875,452.375 C 96.139837,453.19725 96.97081,453.82601 97.90625,454.21875 C 98.932687,454.64971 100.09041,454.79627 101.0625,454.46875 C 102.28617,454.12085 103.13032,453.25301 103.96875,452.59375 C 104.22342,453.14258 104.68433,453.61028 105.21875,453.9375 C 105.90908,454.36015 106.74568,454.57243 107.4375,454.1875 C 107.44346,454.1842 107.46281,454.1909 107.46875,454.1875 C 107.47775,454.18363 107.491,454.16011 107.5,454.15625 C 114.10755,451.31831 118.76578,447.83133 122.75,444.125 C 122.75616,444.11926 122.77551,444.13116 122.78125,444.125 C 124.43271,442.36057 127.87633,441.24989 131.875,440.40625 C 133.0104,440.59726 134.07734,440.7235 134.9375,440.65625 C 135.70157,440.59652 136.34375,440.34808 136.75,439.875 C 137.64393,440.15146 138.51098,440.39685 139.3125,440.4375 C 140.1217,440.47854 140.86781,440.30687 141.46875,439.84375 C 144.54083,440.24705 146.21614,439.11539 147.625,437.90625 C 147.86936,437.9703 148.14639,438.06806 148.46875,438.09375 C 148.6556,438.10865 148.86485,438.08308 149.0625,438 C 149.51329,440.61341 149.58127,443.1467 150.4375,444.9375 C 150.89873,445.90215 151.64671,446.63597 152.78125,446.96875 C 153.88939,447.29378 155.34337,447.23477 157.3125,446.75 C 159.13614,447.78358 161.24637,447.86433 163.5,447.40625 C 164.9648,448.61608 166.54495,449.08404 168.125,449.125 C 169.72394,449.16644 171.35252,448.81279 172.9375,448.4375 C 175.75004,449.33304 178.65475,450.12034 181.75,448.75 C 183.20193,448.09934 184.58967,448.51968 186,448.96875 C 187.41033,449.41781 188.87668,449.92755 190.28125,449.21875 C 190.29347,449.21348 190.30093,449.22537 190.3125,449.21875 C 190.99006,448.7762 191.78109,448.34139 192.125,447.5625 C 192.29695,447.17307 192.31071,446.70942 192.15625,446.1875 C 192.00178,445.66557 191.69503,445.10371 191.15625,444.40625 C 191.15344,444.4002 191.12814,444.38087 191.125,444.375 C 189.84445,442.84348 188.08436,441.96978 186.1875,441.03125 C 184.2957,440.09523 182.26688,439.09219 180.375,437.4375 L 177.71875,434.84375 C 181.13522,434.74511 183.79375,434.26117 185.75,433.125 C 187.26731,432.24376 188.32051,430.97949 189.0625,429.28125 C 189.22661,430.28146 189.62366,431.21273 190.21875,432.09375 C 191.26572,433.64378 192.88638,435.01372 194.84375,436.3125 C 198.75848,438.91008 204.03438,441.21424 208.84375,443.6875 C 211.37988,444.99172 213.58422,446.14925 216,447.4375 C 216.00587,447.44062 216.02521,447.43469 216.03125,447.4375 C 216.93872,447.86495 217.65958,448.08561 218.25,448.125 C 218.84042,448.16438 219.31378,448.02518 219.59375,447.6875 C 219.87372,447.34981 219.85852,446.8611 219.625,446.46875 C 219.39407,446.08072 218.98275,445.73556 218.40625,445.4375 C 218.40021,445.43389 218.38104,445.40985 218.375,445.40625 C 206.97804,438.62282 202.26421,433.11914 200.03125,428.25 C 197.80786,423.40173 198.03749,419.12284 196.625,414.78125 L 195.34375,405.625 C 195.34398,405.6219 195.34354,405.59686 195.34375,405.59375 C 196.01341,395.86575 194.88154,389.71702 193.28125,384.5 C 191.68464,379.29497 189.6092,375.04563 188.40625,369.0625 L 188.3125,367.1875 L 192.5,363.75 C 192.85568,363.44805 193.18376,363.14577 193.53125,362.84375 C 193.01648,363.72916 192.42853,364.69248 191.78125,365.71875 C 192.42376,364.7617 193.24367,363.66677 193.9375,362.5 C 194.21929,362.25192 194.50876,361.99807 194.78125,361.75 C 193.81707,363.85504 192.32831,366.14981 190.65625,368.78125 C 192.12138,366.61473 194.20722,364.04675 195.34375,361.25 C 195.46265,361.13856 195.57117,361.01767 195.6875,360.90625 C 195.28254,363.63529 193.80159,366.73491 192.125,370.46875 C 193.49081,367.64569 195.67479,364.12779 196.03125,360.59375 C 196.71629,359.92244 197.34941,359.23275 197.90625,358.5625 C 197.94918,358.51357 197.98856,358.47032 198,358.40625 C 198.03241,358.21125 198.22283,357.80899 198.53125,357.34375 C 198.83968,356.87849 199.24891,356.33738 199.5625,355.71875 C 200.18964,354.48147 200.50177,352.88908 199.34375,351.28125 C 198.63573,350.35364 198.04033,349.758 197.5,349.40625 C 196.95967,349.0545 196.46928,348.93533 196.03125,348.9375 C 195.59321,348.93967 195.20891,349.04319 194.875,349.09375 C 194.54109,349.1443 194.24144,349.16636 193.875,349.03125 C 193.83867,349.01971 193.81936,348.99953 193.78125,349 C 191.81147,348.9618 190.48315,349.1552 189.09375,349.3125 C 188.65834,348.42111 187.84804,347.75607 186.8125,347.28125 C 185.67377,346.7591 184.2766,346.43812 182.84375,346.25 C 181.43351,346.06485 179.98417,346.03367 178.6875,346.0625 z"
         style="fill:#2e3436;fill-rule:evenodd;stroke:none;stroke-width:0.69786364px;stroke-linecap:butt;stroke-linejoin:miter;stroke-opacity:1" />
      <path
         id="path18659"
         d="M 178.625,346.3125 C 177.32161,346.34314 176.17692,346.47699 175.40625,346.625 C 174.62912,346.55581 173.89067,346.54013 173.1875,346.5625 C 173.14732,346.56378 173.10242,346.56095 173.0625,346.5625 C 173.05023,346.57019 173.0435,346.58605 173.03125,346.59375 C 169.40414,346.87052 164.86434,353.10923 163.625,355.6875 C 158.94148,360.95684 159.42375,365.98415 158.875,371.09375 C 158.74542,376.59185 157.68063,381.38388 153.625,386.6875 C 149.91858,390.81139 148.28282,395.49354 146.4375,400.125 C 142.23764,406.15476 137.19761,410.21498 132.53125,415.15625 C 127.91603,419.89721 124.49001,425.22769 120.5,430.28125 C 117.24502,435.55307 113.0519,439.55751 107.34375,441.5 C 100.5682,443.55938 94.52728,445.02907 87.25,448.59375 C 85.965783,449.53917 88.13776,450.63073 89.3125,450 C 89.30464,449.81382 89.28534,449.56771 89.3125,449.3125 C 89.371428,448.7609 89.56071,448.10795 90.125,447.84375 C 90.128598,447.84164 90.15265,447.84584 90.15625,447.84375 C 93.677441,445.79559 97.117763,444.94458 100.15625,444.25 C 103.19782,443.55472 105.82833,443.02299 107.6875,441.59375 C 107.70747,441.57531 107.72357,441.53612 107.75,441.53125 C 107.81681,441.51802 107.88011,441.56206 107.90625,441.625 C 107.93221,441.68795 107.90042,441.77465 107.84375,441.8125 C 105.91033,443.29861 103.2572,443.83668 100.21875,444.53125 C 97.180292,445.22582 93.76513,446.06481 90.28125,448.09375 C 90.275308,448.09412 90.25594,448.09413 90.25,448.09375 C 89.822601,448.28803 89.67965,448.83005 89.625,449.34375 C 89.570548,449.85746 89.625,450.3125 89.625,450.3125 C 89.627801,450.33485 89.6318,450.35501 89.625,450.375 C 90.148381,450.87149 90.88835,450.89878 91.6875,450.84375 C 91.648191,450.75862 91.61852,450.65503 91.59375,450.53125 C 91.530561,450.21532 91.56297,449.785 91.90625,449.34375 C 91.916412,449.33301 91.92415,449.3195 91.9375,449.3125 C 95.188419,447.16623 98.532863,446.27146 101.59375,445.46875 C 104.65463,444.66603 107.4454,443.94409 109.59375,442.125 C 109.60857,442.10918 109.6362,442.10143 109.65625,442.09375 C 109.67262,442.0895 109.67173,442.09257 109.6875,442.09375 C 109.73483,442.09732 109.78962,442.111 109.8125,442.15625 C 109.84267,442.21659 109.83375,442.30171 109.78125,442.34375 C 107.56945,444.21673 104.71699,444.94734 101.65625,445.75 C 98.604346,446.55035 95.32222,447.42812 92.125,449.53125 C 91.845281,449.90101 91.82518,450.22031 91.875,450.46875 C 91.925268,450.72148 92.0625,450.87499 92.0625,450.875 C 92.105598,450.91333 92.11257,450.97671 92.09375,451.03125 C 92.091013,451.0392 92.06645,451.05521 92.0625,451.0625 C 92.291433,451.32303 92.81061,451.61642 93.84375,451.40625 C 93.825191,451.25821 93.81642,451.08976 93.84375,450.90625 C 93.930191,450.32588 94.36154,449.63955 95.53125,449.125 C 97.976143,448.27552 101.40786,447.46837 104.53125,446.40625 C 107.65463,445.34413 110.46137,443.99776 111.65625,442.15625 C 111.67659,442.12443 111.71315,442.10196 111.75,442.09375 C 111.80873,442.07795 111.87235,442.10595 111.90625,442.15625 C 111.94051,442.20655 111.94285,442.26369 111.90625,442.3125 C 110.63582,444.27062 107.76726,445.58771 104.625,446.65625 C 101.48973,447.7224 98.04321,448.53654 95.625,449.375 C 94.519701,449.86132 94.19779,450.47999 94.125,450.96875 C 94.093871,451.17778 94.11623,451.37395 94.125,451.5625 C 94.442136,451.90871 95.02106,452.17317 95.78125,451.96875 C 95.814253,451.74636 95.88771,451.50143 96,451.25 C 96.275042,450.63467 97.10361,450.12458 98,449.6875 C 98.896397,449.25041 99.891123,448.9114 100.53125,448.65625 C 100.87972,448.51726 101.57415,448.33098 102.53125,448.09375 C 103.48843,447.85651 104.67415,447.56374 105.9375,447.1875 C 108.4636,446.43501 111.28,445.38209 113.0625,443.90625 C 113.08661,443.88171 113.12183,443.84654 113.15625,443.84375 C 113.22129,443.83801 113.2909,443.87585 113.3125,443.9375 C 113.33409,443.99916 113.3047,444.08886 113.25,444.125 C 111.40642,445.65148 108.57227,446.71185 106.03125,447.46875 C 104.76076,447.84718 103.55165,448.13761 102.59375,448.375 C 101.63603,448.6124 100.91997,448.78856 100.625,448.90625 C 99.977529,449.16443 99.00268,449.50954 98.125,449.9375 C 97.24726,450.36545 96.48875,450.91038 96.28125,451.375 C 96.114367,451.74842 96.06072,452.06467 96.0625,452.34375 C 96.655288,453.28729 97.90627,453.99222 99.15625,454.1875 C 98.88565,453.70441 99.94816,452.77061 99.84375,452.875 C 107.23072,448.23112 112.93894,446.96046 119.21875,444.53125 C 114.18894,447.06306 109.18605,447.82623 104.15625,452.25 C 104.58319,453.39847 106.24071,454.39763 107.21875,453.8125 C 113.80933,450.98875 118.4642,447.53993 122.4375,443.84375 C 124.21021,441.94975 127.74405,440.84886 131.78125,440 C 134.09794,440.39696 135.98996,440.43609 136.5625,439.4375 C 138.49196,440.05372 140.25211,440.38505 141.3125,439.4375 C 144.48142,439.89901 146.02095,438.72861 147.46875,437.46875 C 148.07069,437.59096 148.72541,437.95425 149.1875,437.375 C 148.82422,432.35359 148.26819,427.33246 147.625,421.96875 C 146.55367,418.53016 145.38093,414.94111 144.125,411 C 143.74913,409.91666 143.42349,408.85128 143.15625,407.875 C 143.48965,408.93701 143.80261,409.98743 144.125,411 C 145.05099,413.66833 146.22871,416.62176 147.34375,419.75 C 146.97491,416.72892 146.59017,413.59946 146.1875,410.28125 C 145.954,408.71537 145.7668,407.19924 145.65625,405.8125 C 145.83441,407.33588 146.01145,408.83059 146.1875,410.28125 C 147.38412,418.30643 149.80354,428.41347 149.375,438.03125 C 149.63086,439.53816 149.75117,441.00091 149.96875,442.28125 C 151.45354,445.43162 154.38419,445.82318 157.1875,446.375 C 157.21781,446.36747 157.25086,446.3515 157.28125,446.34375 C 157.31721,446.36533 157.33898,446.38548 157.375,446.40625 C 157.38072,446.40739 157.40036,446.4051 157.40625,446.40625 C 156.06163,441.97043 155.19762,438.01445 154.1875,433 C 155.37598,436.30998 156.29354,443.99114 158.84375,445.65625 C 160.176,446.5261 161.73078,446.53498 163.40625,447.03125 C 163.454,447.02146 163.48332,447.01025 163.53125,447 C 163.55253,447.01839 163.57262,447.04444 163.59375,447.0625 C 162.96608,442.69445 160.4765,437.28884 158.1875,432.28125 C 164.40192,443.47133 162.48857,444.07656 164.53125,445.84375 C 166.41719,447.47532 168.59648,448.68771 171.96875,448.25 C 172.26721,448.18283 172.57584,448.10215 172.875,448.03125 C 172.90467,448.04071 172.90799,448.05305 172.9375,448.0625 C 175.53599,446.55147 166.37321,438.74197 164.1875,433 C 166.27174,436.62689 171.67557,443.45483 174.0625,445.90625 C 175.63295,447.519 177.64773,447.92271 179.71875,446.96875 C 180.74791,446.55872 181.61015,448.10187 183.28125,446.84375 C 184.10996,446.19767 185.99961,447.03328 188.28125,447.84375 C 189.5364,448.32943 190.64619,447.83715 191.71875,447.375 C 191.98755,446.75295 191.82076,445.93972 190.78125,444.59375 C 188.34099,441.67522 183.94062,441.05684 180.0625,437.65625 L 176.78125,434.5 C 176.80882,434.49976 176.84752,434.50029 176.875,434.5 C 172.35066,430.15766 172.57594,423.19391 171.375,416.5625 C 172.99865,423.62901 173.7069,430.8203 177.3125,434.46875 C 183.42833,434.34384 186.8912,432.97219 188.59375,429.3125 C 188.82244,428.68066 189.06546,428.06933 189.28125,427.4375 C 189.28602,427.41957 189.27646,427.39302 189.28125,427.375 C 189.29534,427.32095 189.33057,427.2731 189.34375,427.21875 C 191.13181,421.95014 192.51809,416.67487 194.1875,411.40625 C 192.47378,417.13943 191.22893,422.55878 189.25,428.46875 C 189.48261,434.81211 199.98404,438.70819 208.9375,443.3125 C 211.47515,444.61751 213.67651,445.77355 216.09375,447.0625 C 219.6107,448.71906 220.32662,446.79751 218.15625,445.6875 C 195.26374,432.06774 199.03754,423.34986 196.21875,414.78125 L 194.90625,405.5625 C 196.23125,386.34295 190.52122,381.24977 188.0625,369.375 C 186.53943,371.71119 181.40907,368.73165 177.375,370.3125 C 181.20129,368.55429 186.24344,371.26785 188.03125,369.1875 C 188.02248,369.14425 188.00869,369.10593 188,369.0625 L 187.96875,368.46875 C 186.19312,370.88695 180.92537,367.34857 176.5,368.75 C 180.74204,367.13417 185.95302,370.4537 187.96875,368.25 L 187.9375,367.78125 C 185.47106,370.5884 179.62291,365.35678 174.03125,366.375 C 174.75548,366.19978 175.48779,366.1401 176.21875,366.15625 C 180.91633,366.26007 185.5617,369.62871 187.9375,367.53125 L 187.90625,367 L 192.25,363.40625 C 194.06497,361.86548 195.80458,360.33058 197.15625,358.8125 L 197.125,358.78125 C 198.19379,357.04208 196.67849,356.4225 196.125,355.40625 C 194.19841,352.77409 191.58482,353.51692 187.6875,353.03125 C 190.29987,352.80881 192.03966,352.6744 194.4375,352.875 C 196.35566,353.52446 197.75272,355.05996 198.375,356.84375 C 198.62804,356.46483 198.88445,356.0429 199.125,355.59375 C 199.04556,355.58648 198.97681,355.57687 198.90625,355.53125 C 198.29339,355.13478 198.82438,353.69077 198.53125,353.40625 C 198.5117,353.38727 198.4648,353.38314 198.4375,353.375 C 198.00081,353.24493 197.46537,354.33573 197.03125,353.75 C 196.59719,353.16431 197.07626,353.0338 197.0625,352.25 C 197.04873,351.4662 195.33129,351.60147 194.40625,350.8125 C 193.85554,350.34279 194.19613,349.78908 194.5625,349.40625 C 194.31004,349.4155 194.04267,349.38918 193.75,349.28125 C 191.69975,349.24152 190.36603,349.46361 188.875,349.625 C 187.85345,346.88977 182.53516,346.22058 178.625,346.3125 z M 182,347.84375 C 182.45153,347.83114 182.84281,348.15648 182.96875,348.6875 C 183.06851,349.10818 182.97064,349.56265 182.75,349.9375 C 185.35148,349.24378 188.01108,349.16031 190.40625,350.6875 C 191.14546,350.79483 191.89298,351.01397 192.65625,351.375 L 192.65625,351.78125 C 192.0904,351.47065 191.55364,351.24154 191,351.09375 C 191.11432,351.18128 191.23089,351.24798 191.34375,351.34375 L 191.21875,351.75 C 190.89241,351.43746 190.55953,351.17077 190.21875,350.9375 C 190.00745,350.9074 189.80472,350.88409 189.59375,350.875 C 189.74981,350.95304 189.90715,351.02695 190.0625,351.125 L 190.03125,351.375 C 189.73319,351.16079 189.42671,351.00617 189.125,350.875 C 186.58668,350.94296 184.00263,352.41329 181,354.5 C 180.93856,354.48213 180.87338,354.48788 180.8125,354.46875 C 183.09461,352.70689 185.67655,350.96773 188.46875,350.65625 C 186.16571,350.08997 183.64883,351.58381 180.3125,353.40625 C 182.69566,352.01472 185.8614,349.53475 188.96875,350.59375 C 189.21158,350.58254 189.47292,350.5816 189.71875,350.59375 C 187.61836,349.41335 185.22123,349.56986 182.40625,350.34375 C 182.32124,350.41751 182.2239,350.48079 182.125,350.53125 C 181.88201,350.65525 181.65704,350.67901 181.4375,350.625 C 180.09691,351.04241 178.63442,351.60167 177.09375,352.1875 C 177.07837,352.17187 177.07777,352.14074 177.0625,352.125 C 178.32721,351.5695 179.64617,350.96988 181.0625,350.46875 C 180.8888,350.32622 180.75126,350.1126 180.6875,349.84375 C 180.5196,349.13573 180.907,348.28731 181.53125,347.96875 C 181.68731,347.88911 181.84949,347.84795 182,347.84375 z M 172.21875,348.875 C 172.21865,348.89653 172.21922,348.91725 172.21875,348.9375 C 172.2922,348.91538 172.35904,348.89324 172.4375,348.875 C 172.36239,348.93617 172.29081,348.99904 172.21875,349.0625 C 171.38293,349.79864 170.79017,350.70618 170.78125,352.0625 C 170.20045,350.8768 170.57997,349.47317 172.1875,348.96875 C 172.20092,348.93882 172.19978,348.90131 172.21875,348.875 z M 189.25,351.40625 C 189.76788,351.41704 190.287,351.4833 190.84375,351.65625 L 190.90625,351.9375 C 188.05111,350.85838 185.77353,352.36686 183.0625,354.84375 C 182.99991,354.84054 182.93724,354.84822 182.875,354.84375 C 184.64705,353.06477 186.72421,351.3536 189.25,351.40625 z M 169.59375,410.4375 C 170.42661,412.31522 170.93489,414.31699 171.3125,416.34375 C 170.8453,414.33584 170.30507,412.33251 169.59375,410.4375 z M 139.46875,412.75 C 143.08028,422.82169 147.1127,429.15421 147.46875,437.15625 C 144.09893,429.01601 142.24674,420.89025 139.46875,412.75 z M 133.5,419.6875 C 137.14721,426.00056 140.42602,432.37673 141.28125,439 C 138.40584,432.6012 136.3752,426.08631 133.5,419.6875 z M 130.34375,423.9375 C 132.89825,428.95211 135.65629,433.81486 136.4375,439.125 C 133.9248,433.57313 132.55914,428.89423 130.34375,423.9375 z M 167.9375,428.53125 C 171.06638,434.94488 172.89193,437.98235 177.90625,442.0625 C 175.95698,440.51421 174.01537,438.9789 172.96875,437.65625 C 173.52658,439.15748 174.97627,440.65501 176.4375,442.15625 C 171.54047,438.21447 169.66608,433.37833 167.9375,428.53125 z M 130.34375,432.78125 C 131.29825,435.13021 131.78494,437.36982 132.4375,439.71875 C 130.12969,437.36983 130.83162,435.13019 130.34375,432.78125 z M 102.71875,453.03125 C 102.20633,453.37491 101.59826,453.74221 101.03125,454.03125 C 101.66184,453.81898 102.21085,453.45217 102.71875,453.03125 z M 99.65625,454.25 C 99.782662,454.2561 99.908193,454.25568 100.03125,454.25 C 99.906931,454.25501 99.78394,454.25682 99.65625,454.25 z"
         style="fill:#babdb6;fill-opacity:1;fill-rule:evenodd;stroke:none;stroke-width:1;stroke-linecap:round;stroke-linejoin:round;stroke-miterlimit:4;stroke-dasharray:none;stroke-opacity:1" />
      <path
         style="fill:#d3d7cf;fill-opacity:1;fill-rule:evenodd;stroke:none;stroke-width:1;stroke-linecap:round;stroke-linejoin:round;stroke-miterlimit:4;stroke-dasharray:none;stroke-opacity:1;filter:url(#filter12604)"
         d="M 276.42734,572.58262 C 276.42744,572.58261 274.78244,594.87621 281.52114,605.95762 C 288.25984,617.03904 291.38954,629.63256 291.23994,622.14512 C 291.09014,614.65767 278.07464,573.93036 276.42734,572.58262 z M 256.55234,605.92637 C 256.52544,605.92381 256.49914,605.92954 256.48994,605.95762 C 256.48984,606.55662 254.84634,612.71641 258.73994,617.95762 C 262.63344,623.19882 262.80094,627.53815 265.64614,630.83262 C 268.49134,634.1271 268.31974,625.44381 263.67734,617.20762 C 259.32524,609.48619 256.95614,605.96475 256.55234,605.92637 z M 245.52114,617.80137 C 245.51944,617.81215 245.52124,617.84885 245.52114,617.86387 C 245.52894,617.8522 245.55254,617.80137 245.55234,617.80137 C 245.54644,617.8096 245.52404,617.78251 245.52114,617.80137 z M 245.52114,617.86387 C 245.30324,618.18929 242.25064,622.93289 245.86494,628.42637 C 249.60864,634.11682 250.37394,636.35737 252.02114,636.20762 C 253.66844,636.05787 249.29874,626.34983 247.05234,621.70762 C 245.72874,618.97203 245.51874,618.11175 245.52114,617.86387 z M 384.45864,651.64512 C 384.81604,652.21096 390.27894,660.89538 389.80234,662.80137 C 389.80234,662.80136 388.12524,665.98189 387.48994,665.77012 C 386.85464,665.55834 385.98994,665.33262 385.98994,665.33262 C 385.98984,665.33261 398.06354,683.14202 403.14614,685.89512 C 408.22884,688.64821 419.23994,686.30137 419.23994,686.30137 C 419.23994,686.30136 391.92664,663.01547 386.20864,654.33262 C 384.77914,652.16191 384.33954,651.45651 384.45864,651.64512 z M 326.48994,652.42637 C 326.32364,652.42596 326.18954,652.60134 326.08364,653.05137 C 325.23644,656.65157 323.52494,665.32669 326.48994,672.73887 C 329.45474,680.15106 336.67064,683.55833 338.36494,683.77012 C 340.05904,683.9819 331.98994,658.14511 331.98994,658.14512 C 330.13684,661.85122 327.65384,652.42926 326.48994,652.42637 z M 402.73994,652.83262 C 417.56424,672.52787 414.81634,673.60714 415.23994,675.30137 C 415.55764,676.57203 409.44214,671.65519 406.36494,669.11387 C 408.73114,671.07281 416.09234,677.17875 419.89614,680.80137 C 424.34344,685.03691 423.27144,687.79802 425.17734,688.64512 C 427.08334,689.49223 428.36494,688.42636 428.36494,688.42637 C 428.36494,688.42637 431.31794,683.35071 443.17734,688.64512 C 455.03694,693.93954 456.73994,689.70761 456.73994,689.70762 C 456.73994,689.70762 444.65884,679.53716 435.55234,677.20762 C 426.44604,674.87807 402.73994,652.83262 402.73994,652.83262 z M 368.95864,653.92637 C 367.93914,654.04363 367.05344,655.35186 367.14614,659.61387 C 367.35784,669.35561 365.45864,668.30137 365.45864,668.30137 C 365.45864,668.30137 371.17764,676.36439 373.08364,680.17637 C 374.07354,681.71017 372.39764,681.70018 376.89614,685.23887 C 376.89614,685.23888 391.08424,693.31144 394.89614,690.77012 C 398.70814,688.2288 396.39134,687.99404 385.80234,674.86387 C 375.21354,661.73372 371.80234,655.61387 371.80234,655.61387 C 371.80244,655.61386 370.26944,653.7756 368.95864,653.92637 z M 220.77114,655.70762 C 220.21034,655.73376 219.56634,655.81069 218.80234,655.89512 C 211.77734,659.2727 200.42404,680.89067 217.30234,666.89512 C 219.66914,665.07013 221.13934,662.35277 222.33364,659.98887 C 223.93354,656.82233 224.69694,655.52463 220.77114,655.70762 z M 345.95864,657.61387 C 345.84274,657.57804 345.77114,657.83662 345.77114,658.55137 C 345.77114,662.36336 345.34104,672.76729 349.36494,677.42637 C 353.38864,682.08546 357.82344,686.73525 360.36494,685.67637 C 361.02544,682.41527 359.42344,678.93596 358.05234,675.45762 C 355.77664,669.68335 353.72904,663.89178 350.83364,658.98887 C 350.62194,659.20064 349.79864,660.05162 348.73994,661.95762 C 347.87954,663.50624 346.46074,657.76913 345.95864,657.61387 z M 112.05234,693.98887 C 110.98324,694.03644 109.83004,694.46305 108.77114,696.05137 C 108.77114,696.05137 109.41364,697.31867 110.89614,696.89512 C 112.37854,696.47156 115.34724,694.35689 113.86494,694.14512 C 113.30894,694.06571 112.69404,693.96033 112.05234,693.98887 z M 132.92734,696.36387 C 130.68764,696.55414 126.52674,697.88208 123.61494,700.92637 C 123.61494,700.92639 125.31294,704.50953 126.58364,703.23887 C 126.89414,702.92838 127.41464,702.49204 128.02114,701.98887 C 128.03244,701.9789 128.04104,701.96757 128.05234,701.95762 C 128.07284,701.94069 128.09424,701.91219 128.11494,701.89512 C 128.42714,701.62591 128.75364,701.36953 129.11494,701.11387 C 130.89404,699.68723 133.01954,698.03872 134.20864,697.11387 C 134.92334,696.55796 134.27134,696.24971 132.92734,696.36387 z M 148.08364,699.27012 C 145.46294,699.27012 141.83344,699.86051 139.92734,700.70762 C 136.11534,702.4018 134.20864,705.57565 134.20864,705.36387 C 134.20864,705.36387 137.79944,708.96795 140.55234,708.33262 C 143.30554,707.69726 145.63634,704.2975 150.08364,701.33262 C 152.30724,699.85017 150.70434,699.27012 148.08364,699.27012 z M 180.58364,701.55137 C 180.58364,701.55134 169.55874,708.54078 164.05234,707.27012 C 158.54614,705.99945 157.29234,706.63143 159.83364,708.11387 C 159.83364,708.11386 160.26164,710.67611 166.61494,708.77012 C 172.96824,706.86413 180.58364,701.55137 180.58364,701.55137 z"
         id="path18661"
         transform="matrix(0.2856579,0,0,0.2856579,59.912393,250.31085)" />
      <path
         style="fill:url(#linearGradient18779);fill-opacity:1;fill-rule:evenodd;stroke:none;stroke-width:1px;stroke-linecap:butt;stroke-linejoin:miter;stroke-opacity:1"
         d="M 177.92813,432.18007 C 177.92813,432.18007 187.16794,429.44235 186.48351,410.96271 C 185.79908,392.48307 171.42603,391.11421 177.92813,382.90104 C 184.43022,374.68786 191.61675,381.18996 192.64339,387.34984 C 193.67004,393.50972 194.35447,396.93187 193.32782,405.82948 C 192.30118,414.72708 190.5901,420.20253 188.87902,426.36241 C 187.16794,432.52229 185.45687,432.86451 182.71914,433.54894 C 179.98142,434.23337 177.2437,432.86451 177.92813,432.18007 z"
         id="path18663" />
    </g>
  </g>
</svg>
